<svg width="49" height="49" viewBox="0 0 49 49" fill="none" xmlns="http://www.w3.org/2000/svg">
<path d="M45.9397 24.9761C45.9397 23.2135 45.7937 21.9273 45.4779 20.5934H24.9397V28.549H36.9951C36.7522 30.5261 35.4397 33.5035 32.523 35.5042L32.4821 35.7706L38.9759 40.7006L39.4258 40.7446C43.5576 37.0049 45.9397 31.5026 45.9397 24.9761Z" fill="#4285F4"/>
<path d="M24.9383 45.9375C30.8444 45.9375 35.8027 44.0318 39.4243 40.7448L32.5215 35.5044C30.6743 36.7668 28.1951 37.6481 24.9383 37.6481C19.1536 37.6481 14.2439 33.9086 12.4938 28.7397L12.2372 28.761L5.48491 33.8823L5.39661 34.1228C8.99378 41.1258 16.3827 45.9375 24.9383 45.9375Z" fill="#34A853"/>
<path d="M12.4951 28.7398C12.0334 27.4059 11.7661 25.9767 11.7661 24.4999C11.7661 23.023 12.0334 21.5939 12.4709 20.2601L12.4586 19.976L5.62167 14.7725L5.39797 14.8768C3.9154 17.7828 3.0647 21.0461 3.0647 24.4999C3.0647 27.9537 3.9154 31.2169 5.39797 34.1229L12.4951 28.7398Z" fill="#FBBC05"/>
<path d="M24.9384 11.3516C29.0459 11.3516 31.8167 13.0904 33.3967 14.5435L39.5703 8.63625C35.7787 5.18244 30.8445 3.0625 24.9384 3.0625C16.3827 3.0625 8.9938 7.87399 5.39661 14.8768L12.4695 20.2601C14.244 15.0913 19.1537 11.3516 24.9384 11.3516Z" fill="#EB4335"/>
</svg>
